<svg width="17" height="16" viewBox="0 0 17 16" fill="none" xmlns="http://www.w3.org/2000/svg">
<g clip-path="url(#clip0)">
<path d="M10.1623 2.51167L9.6201 2.37232C9.5503 2.3505 9.48155 2.35736 9.4147 2.39284C9.34763 2.42836 9.30234 2.48167 9.27907 2.5527L6.01781 13.1348C5.99453 13.2059 6.00182 13.2729 6.0397 13.3356C6.07759 13.3985 6.13433 13.4408 6.21022 13.4627L6.75229 13.6021C6.82224 13.6241 6.89074 13.6172 6.95778 13.5816C7.02484 13.546 7.07004 13.4928 7.09329 13.4219L10.3546 2.83963C10.3779 2.7686 10.3707 2.70159 10.3327 2.63869C10.2948 2.57581 10.2381 2.53346 10.1623 2.51167Z" fill="#000346"/>
<path d="M5.27484 4.57788C5.27484 4.50686 5.24565 4.44395 5.18737 4.38935L4.75016 3.97949C4.69188 3.92485 4.62481 3.89746 4.54905 3.89746C4.47329 3.89746 4.40619 3.92488 4.34794 3.97949L0.273619 7.79916C0.21525 7.85379 0.186157 7.91667 0.186157 7.98769C0.186157 8.05872 0.215342 8.1216 0.273619 8.1762L4.34791 11.9959C4.40616 12.0506 4.47313 12.0778 4.54902 12.0778C4.62491 12.0778 4.69188 12.0505 4.75013 11.9959L5.18734 11.5862C5.24562 11.5316 5.27481 11.4687 5.27481 11.3976C5.27481 11.3267 5.24562 11.2638 5.18734 11.2092L1.75125 7.98769L5.18737 4.76642C5.24574 4.71182 5.27484 4.64891 5.27484 4.57788Z" fill="#000346"/>
<path d="M16.0988 7.79867L12.0244 3.979C11.9662 3.92439 11.8991 3.89697 11.8234 3.89697C11.7476 3.89697 11.6807 3.92439 11.6222 3.979L11.1852 4.38883C11.127 4.44346 11.0979 4.50625 11.0979 4.57737C11.0979 4.64848 11.1269 4.7113 11.1852 4.7659L14.6214 7.98726L11.1852 11.2088C11.127 11.2634 11.0979 11.3263 11.0979 11.3972C11.0979 11.4684 11.1269 11.5312 11.1852 11.5858L11.6222 11.9955C11.6807 12.0502 11.7476 12.0774 11.8234 12.0774C11.8991 12.0774 11.9662 12.0501 12.0244 11.9955L16.0988 8.17583C16.1571 8.12122 16.1862 8.05824 16.1862 7.98721C16.1862 7.91615 16.1571 7.85328 16.0988 7.79867Z" fill="#000346"/>
</g>
<defs>
<clipPath id="clip0">
<rect width="16" height="15" fill="white" transform="translate(0.186157 0.487305)"/>
</clipPath>
</defs>
</svg>
