<svg width="13" height="13" viewBox="0 0 13 13" fill="none" xmlns="http://www.w3.org/2000/svg">
<g clip-path="url(#clip0)">
<path d="M3.57475 9.77268L6.01224 12.222C6.01238 12.2221 6.01255 12.2223 6.01269 12.2224C6.19592 12.406 6.49367 12.4054 6.6763 12.2224C6.67644 12.2222 6.6766 12.2221 6.67674 12.2219L9.11423 9.77264C9.29684 9.58914 9.29616 9.29233 9.11264 9.10971C8.92915 8.92708 8.63236 8.92778 8.44974 9.11128L6.81324 10.7557L6.81324 0.828605C6.81324 0.569714 6.60338 0.359855 6.34449 0.359855C6.0856 0.359855 5.87574 0.569714 5.87574 0.828605L5.87574 10.7557L4.23925 9.11132C4.05662 8.92783 3.75983 8.92713 3.57634 9.10975C3.3928 9.2924 3.39217 9.58921 3.57475 9.77268Z" fill="#000346"/>
</g>
<defs>
<clipPath id="clip0">
<rect width="12" height="12" fill="white" transform="translate(12.3446 12.3599) rotate(-180)"/>
</clipPath>
</defs>
</svg>
