<svg width="13" height="13" viewBox="0 0 13 13" fill="none" xmlns="http://www.w3.org/2000/svg">
<g clip-path="url(#clip0)">
<path d="M8.95601 2.94704L6.51852 0.497732C6.51838 0.497591 6.51821 0.497474 6.51807 0.49731C6.33484 0.313747 6.03709 0.314333 5.85447 0.497357C5.85433 0.497497 5.85416 0.497614 5.85402 0.497778L3.41653 2.94709C3.23393 3.13058 3.23461 3.4274 3.41812 3.61002C3.60161 3.79265 3.8984 3.79194 4.08103 3.60845L5.71752 1.96398V11.8911C5.71752 12.15 5.92738 12.3599 6.18627 12.3599C6.44516 12.3599 6.65502 12.15 6.65502 11.8911V1.96398L8.29151 3.6084C8.47414 3.7919 8.77093 3.7926 8.95442 3.60997C9.13796 3.42733 9.13859 3.13051 8.95601 2.94704Z" fill="#000346"/>
</g>
<defs>
<clipPath id="clip0">
<rect width="12" height="12" fill="white" transform="translate(0.186157 0.359863)"/>
</clipPath>
</defs>
</svg>
