<svg width="16" height="17" viewBox="0 0 16 17" fill="none" xmlns="http://www.w3.org/2000/svg">
<path d="M11.3334 13.6649H9.83337C9.55737 13.6649 9.33337 13.4409 9.33337 13.1649C9.33337 12.8889 9.55737 12.6649 9.83337 12.6649H11.3334C13.3553 12.6649 15 11.0195 15 8.99817C15 6.97693 13.3553 5.33154 11.3334 5.33154H9.83337C9.55737 5.33154 9.33337 5.10754 9.33337 4.83154C9.33337 4.55554 9.55737 4.33154 9.83337 4.33154H11.3334C13.9066 4.33154 16 6.42554 16 8.99817C16 11.5709 13.9066 13.6649 11.3334 13.6649V13.6649Z" fill="#000346"/>
<path d="M6.16663 13.6649H4.66663C2.09338 13.6649 0 11.5709 0 8.99817C0 6.42554 2.09338 4.33154 4.66663 4.33154H6.16663C6.44263 4.33154 6.66663 4.55554 6.66663 4.83154C6.66663 5.10754 6.44263 5.33154 6.16663 5.33154H4.66663C2.64465 5.33154 1 6.97693 1 8.99817C1 11.0195 2.64465 12.6649 4.66663 12.6649H6.16663C6.44263 12.6649 6.66663 12.8889 6.66663 13.1649C6.66663 13.4409 6.44263 13.6649 6.16663 13.6649Z" fill="#000346"/>
<path d="M10.1666 9.49805H5.83337C5.55737 9.49805 5.33337 9.27405 5.33337 8.99805C5.33337 8.72205 5.55737 8.49805 5.83337 8.49805H10.1666C10.4426 8.49805 10.6666 8.72205 10.6666 8.99805C10.6666 9.27405 10.4426 9.49805 10.1666 9.49805Z" fill="#000346"/>
</svg>
