<svg width="116" height="27" viewBox="0 0 116 27" fill="none" xmlns="http://www.w3.org/2000/svg">
<path d="M25.684 9.68H21.604C21.196 9.68 20.924 9.918 20.924 10.258V10.394C20.924 11.244 22.998 11.414 22.284 13.488L19.666 21.036L16.572 10.394C16.436 9.986 16.232 9.782 15.79 9.782L13.92 9.816C13.478 9.816 13.274 10.054 13.138 10.462L9.976 21.036L7.256 13.046C6.678 11.346 8.276 11.21 8.276 10.394V10.258C8.276 9.918 8.038 9.68 7.63 9.68H1.578C1.17 9.68 0.898 9.884 0.898 10.224V10.394C0.898 11.21 1.952 11.55 2.53 12.978L7.494 25.184C7.698 25.762 8.004 26 8.582 26H9.364C9.942 26 10.282 25.762 10.486 25.184L13.648 15.12L16.776 25.184C16.946 25.762 17.286 26 17.898 26H19.02C19.598 26 19.904 25.762 20.108 25.184L24.494 12.978C25.038 11.448 26.364 11.244 26.364 10.394V10.224C26.364 9.884 26.126 9.68 25.684 9.68ZM38.9979 20.832C38.3519 21.886 36.9239 22.804 35.1219 22.804C33.0819 22.804 31.5179 21.716 30.6339 19.846L38.1819 16.412C39.0999 16.004 39.6779 15.324 39.6779 14.168C39.6779 11.924 37.7059 9.34 33.2519 9.34C28.7979 9.34 25.0239 12.774 25.0239 17.704C25.0239 22.94 28.5259 26.34 33.2519 26.34C37.6379 26.34 39.9499 23.178 40.1539 21.206C40.1879 20.492 39.4059 20.322 38.9979 20.832ZM32.6399 10.836C34.4759 10.836 35.3599 13.25 35.3599 14.474C35.3599 15.188 35.0879 15.766 34.4759 16.072L30.0899 18.282C29.8519 17.398 29.7499 16.412 29.7499 15.358C29.7499 12.774 30.8379 10.836 32.6399 10.836ZM50.4971 9.34C48.8651 9.34 47.4711 9.816 46.5191 10.7V1.18C46.5191 0.329998 45.8731 0.125999 45.0911 0.499998L40.7051 2.54C40.0931 2.812 39.9231 2.982 39.9231 3.356V3.458C39.9231 4.308 41.4871 4.512 41.4871 6.042V22.702C41.4871 24.164 40.1611 24.504 40.1611 25.32V25.422C40.1611 25.796 40.4331 26 40.8751 26L45.2611 26.034C45.7711 26.034 46.0431 25.83 46.0431 25.286V24.538C47.1311 25.694 48.5931 26.34 50.4971 26.34C54.7471 26.34 58.4191 22.804 58.4191 17.568C58.4191 12.23 54.4411 9.34 50.4971 9.34ZM49.9871 24.878C48.2191 24.878 46.5191 22.702 46.5191 20.39V14.236C46.5191 12.196 47.7091 10.802 49.2731 10.802C51.9931 10.802 53.4551 15.324 53.4551 19.608C53.4551 23.008 52.1971 24.878 49.9871 24.878ZM59.4354 26H65.6914C66.1334 26 66.4734 25.762 66.4734 25.422V25.286C66.4734 24.436 65.0114 24.164 65.0114 22.736V1.112C65.0114 0.534 64.5014 0.0579996 63.6174 0.499998L59.3334 2.608C58.9254 2.778 58.6534 2.948 58.6534 3.288V3.424C58.6534 4.138 59.9794 4.478 59.9794 6.008V22.736C59.9794 24.164 58.6534 24.436 58.6534 25.286V25.422C58.6534 25.762 58.9594 26 59.4354 26ZM75.9347 26.34C80.8987 26.34 84.5707 22.736 84.5707 17.908C84.5707 13.08 80.6607 9.34 75.4247 9.34C70.6647 9.34 66.6187 12.808 66.6187 17.738C66.6187 22.464 70.4607 26.34 75.9347 26.34ZM76.5467 24.844C73.4527 24.844 71.6167 19.268 71.6167 15.8C71.6167 12.57 72.7047 10.836 74.7447 10.836C77.6347 10.836 79.4707 16.208 79.4707 19.914C79.4707 23.042 78.3827 24.844 76.5467 24.844ZM93.4473 26.34C97.8673 26.34 100.179 23.586 100.383 20.798C100.451 20.05 99.6013 19.914 99.1933 20.458C98.4793 21.682 97.1873 22.838 95.1133 22.838C91.6453 22.838 89.3333 19.88 89.3333 15.358C89.3333 12.842 90.5573 10.836 92.4953 10.836C95.4533 10.802 95.2493 15.63 98.1733 15.8C99.7373 15.868 100.281 14.984 100.281 14.1C100.281 11.448 97.1533 9.306 93.2433 9.34C88.6533 9.374 84.6753 12.57 84.6753 17.806C84.6753 22.396 88.3133 26.34 93.4473 26.34ZM107.791 26.306C112.347 26.306 115.067 24.198 115.067 21.444C115.067 14.95 105.785 17.67 105.785 13.012C105.785 11.788 106.635 10.734 107.995 10.734C110.953 10.734 109.967 15.188 112.789 15.188C113.877 15.188 114.727 14.406 114.727 13.42C114.727 11.312 112.007 9.34 107.723 9.34C103.643 9.34 100.821 11.448 100.821 14.338C100.821 21.036 110.273 18.214 110.273 22.736C110.273 24.266 109.185 24.98 107.791 24.98C104.391 24.98 105.547 20.492 102.555 20.492C101.399 20.492 100.515 21.07 100.515 22.362C100.515 24.47 103.405 26.306 107.791 26.306Z" fill="#000346"/>
</svg>
